<svg width="166" height="273" viewBox="0 0 166 273" fill="none" xmlns="http://www.w3.org/2000/svg">
<rect y="9" width="159" height="264" rx="10" fill="#8055F0" fill-opacity="0.58"/>
<rect x="48" y="89" width="21" height="12" rx="3" fill="#D9D9D9"/>
<path d="M69.18 258H70.54L67.38 251H66.1L62.95 258H64.29L64.98 256.38H68.48L69.18 258ZM65.42 255.36L66.73 252.3L68.05 255.36H65.42ZM74.6368 252.66L72.9268 256.62L71.2668 252.66H69.9668L72.2568 258H73.5468L75.8368 252.66H74.6368ZM78.292 252.6C77.432 252.6 76.602 252.82 76.032 253.26L76.522 254.17C76.922 253.84 77.542 253.64 78.142 253.64C79.032 253.64 79.472 254.07 79.472 254.8V254.88H78.092C76.472 254.88 75.872 255.58 75.872 256.47C75.872 257.4 76.642 258.07 77.862 258.07C78.662 258.07 79.242 257.81 79.542 257.35V258H80.722V254.87C80.722 253.33 79.832 252.6 78.292 252.6ZM78.122 257.16C77.482 257.16 77.102 256.87 77.102 256.42C77.102 256.03 77.332 255.71 78.182 255.71H79.472V256.33C79.262 256.88 78.732 257.16 78.122 257.16ZM84.9862 256.82C84.7962 256.97 84.5462 257.04 84.2862 257.04C83.8062 257.04 83.5462 256.76 83.5462 256.24V253.7H84.9762V252.7H83.5462V251.48H82.2962V252.7H81.4162V253.7H82.2962V256.27C82.2962 257.45 82.9662 258.07 84.1362 258.07C84.5862 258.07 85.0362 257.95 85.3362 257.71L84.9862 256.82ZM88.2045 252.6C87.3445 252.6 86.5145 252.82 85.9445 253.26L86.4345 254.17C86.8345 253.84 87.4545 253.64 88.0545 253.64C88.9445 253.64 89.3845 254.07 89.3845 254.8V254.88H88.0045C86.3845 254.88 85.7845 255.58 85.7845 256.47C85.7845 257.4 86.5545 258.07 87.7745 258.07C88.5745 258.07 89.1545 257.81 89.4545 257.35V258H90.6345V254.87C90.6345 253.33 89.7445 252.6 88.2045 252.6ZM88.0345 257.16C87.3945 257.16 87.0145 256.87 87.0145 256.42C87.0145 256.03 87.2445 255.71 88.0945 255.71H89.3845V256.33C89.1745 256.88 88.6445 257.16 88.0345 257.16ZM93.2288 253.44V252.66H92.0388V258H93.2888V255.41C93.2888 254.32 93.8888 253.76 94.8388 253.76C94.9288 253.76 95.0188 253.77 95.1288 253.79V252.6C94.2388 252.6 93.5888 252.88 93.2288 253.44Z" fill="#8055F0"/>
<rect x="15" y="26" width="130" height="209" rx="10" fill="white"/>
<circle cx="79.5" cy="63.5" r="17.5" fill="#8055F0" fill-opacity="0.59"/>
<rect x="72" y="89" width="41" height="12" rx="3" fill="#8055F0" fill-opacity="0.59"/>
<rect x="29" y="109" width="102" height="20" rx="3" fill="#8055F0" fill-opacity="0.59"/>
<rect x="29" y="137" width="102" height="20" rx="3" fill="#8055F0" fill-opacity="0.59"/>
<rect x="29" y="165" width="102" height="20" rx="3" fill="#8055F0" fill-opacity="0.59"/>
<rect x="29" y="191" width="102" height="20" rx="3" fill="#8055F0" fill-opacity="0.59"/>
<rect x="48" y="89" width="21" height="12" rx="3" fill="#8055F0" fill-opacity="0.59"/>
<circle cx="154" cy="12" r="10" fill="white"/>
<path d="M154 22C148.477 22 144 17.523 144 12C144 6.477 148.477 2 154 2C159.523 2 164 6.477 164 12C164 17.523 159.523 22 154 22ZM153.003 16L160.073 8.929L158.659 7.515L153.003 13.172L150.174 10.343L148.76 11.757L153.003 16Z" fill="#163152"/>
</svg>
