<svg width="159" height="264" viewBox="0 0 159 264" fill="none" xmlns="http://www.w3.org/2000/svg">
<rect width="159" height="264" rx="10" fill="#8055F0" fill-opacity="0.58"/>
<rect x="48" y="80" width="21" height="12" rx="3" fill="#D9D9D9"/>
<path d="M69.18 249H70.54L67.38 242H66.1L62.95 249H64.29L64.98 247.38H68.48L69.18 249ZM65.42 246.36L66.73 243.3L68.05 246.36H65.42ZM74.6368 243.66L72.9268 247.62L71.2668 243.66H69.9668L72.2568 249H73.5468L75.8368 243.66H74.6368ZM78.292 243.6C77.432 243.6 76.602 243.82 76.032 244.26L76.522 245.17C76.922 244.84 77.542 244.64 78.142 244.64C79.032 244.64 79.472 245.07 79.472 245.8V245.88H78.092C76.472 245.88 75.872 246.58 75.872 247.47C75.872 248.4 76.642 249.07 77.862 249.07C78.662 249.07 79.242 248.81 79.542 248.35V249H80.722V245.87C80.722 244.33 79.832 243.6 78.292 243.6ZM78.122 248.16C77.482 248.16 77.102 247.87 77.102 247.42C77.102 247.03 77.332 246.71 78.182 246.71H79.472V247.33C79.262 247.88 78.732 248.16 78.122 248.16ZM84.9862 247.82C84.7962 247.97 84.5462 248.04 84.2862 248.04C83.8062 248.04 83.5462 247.76 83.5462 247.24V244.7H84.9762V243.7H83.5462V242.48H82.2962V243.7H81.4162V244.7H82.2962V247.27C82.2962 248.45 82.9662 249.07 84.1362 249.07C84.5862 249.07 85.0362 248.95 85.3362 248.71L84.9862 247.82ZM88.2045 243.6C87.3445 243.6 86.5145 243.82 85.9445 244.26L86.4345 245.17C86.8345 244.84 87.4545 244.64 88.0545 244.64C88.9445 244.64 89.3845 245.07 89.3845 245.8V245.88H88.0045C86.3845 245.88 85.7845 246.58 85.7845 247.47C85.7845 248.4 86.5545 249.07 87.7745 249.07C88.5745 249.07 89.1545 248.81 89.4545 248.35V249H90.6345V245.87C90.6345 244.33 89.7445 243.6 88.2045 243.6ZM88.0345 248.16C87.3945 248.16 87.0145 247.87 87.0145 247.42C87.0145 247.03 87.2445 246.71 88.0945 246.71H89.3845V247.33C89.1745 247.88 88.6445 248.16 88.0345 248.16ZM93.2288 244.44V243.66H92.0388V249H93.2888V246.41C93.2888 245.32 93.8888 244.76 94.8388 244.76C94.9288 244.76 95.0188 244.77 95.1288 244.79V243.6C94.2388 243.6 93.5888 243.88 93.2288 244.44Z" fill="#8055F0"/>
<rect x="15" y="17" width="130" height="209" rx="10" fill="white"/>
<circle cx="79.5" cy="54.5" r="17.5" fill="#8055F0" fill-opacity="0.59"/>
<rect x="72" y="80" width="41" height="12" rx="3" fill="#8055F0" fill-opacity="0.59"/>
<rect x="29" y="100" width="102" height="20" rx="3" fill="#8055F0" fill-opacity="0.59"/>
<rect x="29" y="128" width="102" height="20" rx="3" fill="#8055F0" fill-opacity="0.59"/>
<rect x="29" y="156" width="102" height="20" rx="3" fill="#8055F0" fill-opacity="0.59"/>
<rect x="29" y="182" width="102" height="20" rx="3" fill="#8055F0" fill-opacity="0.59"/>
<rect x="48" y="80" width="21" height="12" rx="3" fill="#8055F0" fill-opacity="0.59"/>
</svg>
