<svg width="159" height="271" viewBox="0 0 159 271" fill="none" xmlns="http://www.w3.org/2000/svg">
<path d="M52.18 256.08C53.27 256.08 54.21 255.7 54.85 254.98L54.2 254.35C53.66 254.92 53 255.19 52.23 255.19C50.65 255.19 49.48 254.05 49.48 252.5C49.48 250.95 50.65 249.81 52.23 249.81C53 249.81 53.66 250.07 54.2 250.64L54.85 250.01C54.21 249.29 53.27 248.92 52.19 248.92C50.06 248.92 48.48 250.43 48.48 252.5C48.48 254.57 50.06 256.08 52.18 256.08ZM57.982 256.06C59.572 256.06 60.732 254.93 60.732 253.35C60.732 251.77 59.572 250.65 57.982 250.65C56.392 250.65 55.222 251.77 55.222 253.35C55.222 254.93 56.392 256.06 57.982 256.06ZM57.982 255.22C56.962 255.22 56.192 254.48 56.192 253.35C56.192 252.22 56.962 251.49 57.982 251.49C59.002 251.49 59.762 252.22 59.762 253.35C59.762 254.48 59.002 255.22 57.982 255.22ZM65.4631 250.7L63.6031 254.95L61.7831 250.7H60.7831L63.1031 256H64.0831L66.4031 250.7H65.4631ZM71.7426 253.38C71.7426 251.75 70.6526 250.65 69.1226 250.65C67.5926 250.65 66.4626 251.78 66.4626 253.35C66.4626 254.93 67.6026 256.06 69.3126 256.06C70.1926 256.06 70.9226 255.76 71.4026 255.2L70.8726 254.58C70.4826 255.01 69.9626 255.22 69.3426 255.22C68.2926 255.22 67.5426 254.6 67.4226 253.67H71.7226C71.7326 253.58 71.7426 253.46 71.7426 253.38ZM69.1226 251.46C70.0526 251.46 70.7226 252.09 70.8226 252.98H67.4226C67.5226 252.08 68.2026 251.46 69.1226 251.46ZM73.7956 251.59V250.7H72.8756V256H73.8356V253.36C73.8356 252.2 74.4756 251.57 75.5056 251.57C75.5756 251.57 75.6456 251.57 75.7256 251.58V250.65C74.7956 250.65 74.1356 250.97 73.7956 251.59ZM79.4027 256H80.4027V249H79.4027V256ZM88.7884 250.65C87.8884 250.65 87.1484 251.03 86.7484 251.63C86.3984 250.97 85.7184 250.65 84.9084 250.65C84.1084 250.65 83.4584 250.95 83.0784 251.49V250.7H82.1584V256H83.1184V253.27C83.1184 252.12 83.7484 251.51 84.7084 251.51C85.5784 251.51 86.0784 252.02 86.0784 253.06V256H87.0384V253.27C87.0384 252.12 87.6684 251.51 88.6284 251.51C89.4984 251.51 89.9984 252.02 89.9984 253.06V256H90.9584V252.95C90.9584 251.39 90.0784 250.65 88.7884 250.65ZM94.4548 250.65C93.6048 250.65 92.8148 250.89 92.2648 251.33L92.6648 252.05C93.0748 251.7 93.7148 251.48 94.3448 251.48C95.2948 251.48 95.7648 251.95 95.7648 252.76V252.95H94.2448C92.6648 252.95 92.1148 253.65 92.1148 254.5C92.1148 255.42 92.8748 256.06 94.0748 256.06C94.9048 256.06 95.4948 255.78 95.8148 255.3V256H96.7248V252.8C96.7248 251.35 95.9048 250.65 94.4548 250.65ZM94.2348 255.32C93.5048 255.32 93.0648 254.99 93.0648 254.46C93.0648 254.01 93.3348 253.64 94.2848 253.64H95.7648V254.38C95.5248 254.99 94.9548 255.32 94.2348 255.32ZM102.491 250.7V251.52C102.041 250.94 101.321 250.65 100.531 250.65C99.0007 250.65 97.8407 251.68 97.8407 253.21C97.8407 254.74 99.0007 255.78 100.531 255.78C101.291 255.78 101.981 255.51 102.441 254.96V255.38C102.441 256.58 101.871 257.16 100.621 257.16C99.8407 257.16 99.0707 256.89 98.5807 256.47L98.1207 257.21C98.7007 257.73 99.6807 258 100.651 258C102.451 258 103.401 257.15 103.401 255.28V250.7H102.491ZM100.641 254.94C99.5707 254.94 98.8107 254.23 98.8107 253.21C98.8107 252.18 99.5707 251.49 100.641 251.49C101.701 251.49 102.461 252.18 102.461 253.21C102.461 254.23 101.701 254.94 100.641 254.94ZM109.825 253.38C109.825 251.75 108.735 250.65 107.205 250.65C105.675 250.65 104.545 251.78 104.545 253.35C104.545 254.93 105.685 256.06 107.395 256.06C108.275 256.06 109.005 255.76 109.485 255.2L108.955 254.58C108.565 255.01 108.045 255.22 107.425 255.22C106.375 255.22 105.625 254.6 105.505 253.67H109.805C109.815 253.58 109.825 253.46 109.825 253.38ZM107.205 251.46C108.135 251.46 108.805 252.09 108.905 252.98H105.505C105.605 252.08 106.285 251.46 107.205 251.46Z" fill="#D9D9D9"/>
<rect x="0.25" y="7.25" width="158.5" height="263.5" rx="9.75" stroke="#D9D9D9" stroke-width="0.5"/>
<rect x="35" y="133" width="21" height="12" rx="3" fill="#D9D9D9"/>
<rect x="59" y="133" width="41" height="12" rx="3" fill="#D9D9D9"/>
<rect x="29" y="163" width="102" height="20" rx="3" fill="#D9D9D9"/>
<rect x="29.5" y="42.5" width="101" height="109" rx="2.5" stroke="#D9D9D9"/>
<rect x="29" y="189" width="102" height="20" rx="3" fill="#D9D9D9"/>
<path d="M69.4082 95.5582L72.4082 92.5582L80.6582 100.808L85.9082 95.5582L90.4082 100.058V86.4082H69.4082V95.5582ZM69.4082 99.8017V107.408H74.0582L78.5372 102.931L72.4082 96.8017L69.4082 99.8017ZM67.9082 83.4082H91.9082C92.306 83.4082 92.6876 83.5662 92.9689 83.8475C93.2502 84.1288 93.4082 84.5104 93.4082 84.9082V108.908C93.4082 109.306 93.2502 109.688 92.9689 109.969C92.6876 110.25 92.306 110.408 91.9082 110.408H67.9082C67.5104 110.408 67.1288 110.25 66.8475 109.969C66.5662 109.688 66.4082 109.306 66.4082 108.908V84.9082C66.4082 84.5104 66.5662 84.1288 66.8475 83.8475C67.1288 83.5662 67.5104 83.4082 67.9082 83.4082ZM85.1582 93.9082C84.5615 93.9082 83.9892 93.6712 83.5672 93.2492C83.1453 92.8272 82.9082 92.2549 82.9082 91.6582C82.9082 91.0615 83.1453 90.4892 83.5672 90.0672C83.9892 89.6453 84.5615 89.4082 85.1582 89.4082C85.7549 89.4082 86.3272 89.6453 86.7492 90.0672C87.1712 90.4892 87.4082 91.0615 87.4082 91.6582C87.4082 92.2549 87.1712 92.8272 86.7492 93.2492C86.3272 93.6712 85.7549 93.9082 85.1582 93.9082Z" fill="#D9D9D9"/>
<rect x="68" width="23" height="14" rx="3" fill="#8055F0"/>
<path d="M74.646 5.1H72.735V10H73.435V8.516H74.646C75.92 8.516 76.69 7.872 76.69 6.808C76.69 5.744 75.92 5.1 74.646 5.1ZM74.625 7.907H73.435V5.709H74.625C75.521 5.709 75.99 6.108 75.99 6.808C75.99 7.508 75.521 7.907 74.625 7.907ZM81.6174 10L80.4554 8.355C81.1414 8.11 81.5334 7.564 81.5334 6.808C81.5334 5.744 80.7634 5.1 79.4894 5.1H77.5784V10H78.2784V8.509H79.4894C79.5944 8.509 79.6994 8.502 79.7974 8.495L80.8544 10H81.6174ZM79.4684 7.914H78.2784V5.709H79.4684C80.3644 5.709 80.8334 6.108 80.8334 6.808C80.8334 7.508 80.3644 7.914 79.4684 7.914ZM84.7363 10.056C86.2273 10.056 87.3333 8.992 87.3333 7.55C87.3333 6.108 86.2273 5.044 84.7363 5.044C83.2313 5.044 82.1253 6.115 82.1253 7.55C82.1253 8.985 83.2313 10.056 84.7363 10.056ZM84.7363 9.433C83.6373 9.433 82.8253 8.635 82.8253 7.55C82.8253 6.465 83.6373 5.667 84.7363 5.667C85.8213 5.667 86.6333 6.465 86.6333 7.55C86.6333 8.635 85.8213 9.433 84.7363 9.433Z" fill="white"/>
</svg>
